Coordinates
version=1
nRows=13
nColumns=34
inDegrees=yes

Units are S.I. units (second, meters, Newtons, ...)
If the header above contains a line with 'inDegrees', this indicates whether rotational values are in degrees (yes) or radians (no).

endheader
time	pelvis_tilt	pelvis_list	pelvis_rotation	pelvis_tx	pelvis_ty	pelvis_tz	hip_flexion_r	hip_adduction_r	hip_rotation_r	knee_angle_r	ankle_angle_r	subtalar_angle_r	mtp_angle_r	hip_flexion_l	hip_adduction_l	hip_rotation_l	knee_angle_l	ankle_angle_l	subtalar_angle_l	mtp_angle_l	lumbar_extension	lumbar_bending	lumbar_rotation	arm_flex_r	arm_add_r	arm_rot_r	elbow_flex_r	pro_sup_r	arm_flex_l	arm_add_l	arm_rot_l	elbow_flex_l	pro_sup_l
      2.96666670	     -1.29536500	      1.51174826	    -10.08203313	      0.45343737	      1.13687641	     -0.03630747	      9.34070324	     -0.82918630	    -12.16033689	      8.30819547	    -23.78197716	    -10.10739468	      0.00000000	      9.69821267	      2.73330891	     -9.31522294	     10.19856755	    -27.25814171	     -6.93949974	      0.00000000	     -7.64596769	      2.18690342	     -6.94410909	      4.48784740	    -11.22847445	     25.98632781	     27.76216199	     67.92547465	    -17.53828871	    -15.62752195	      3.86513327	     43.77078787	     80.80834005
      2.98333330	     -0.90371216	      1.48861505	    -10.32697518	      0.46800399	      1.10692660	     -0.03473978	     10.81792544	     -0.96033974	    -12.42100041	      7.23857172	    -25.56350081	     -9.41232439	      0.00000000	     11.20736682	      2.82555242	     -8.96514557	      9.59184552	    -29.52528001	     -7.86901846	      0.00000000	     -8.72261432	      2.18923263	     -6.27239201	      4.19200514	    -11.43893664	     25.67476655	     27.74016998	     67.21506667	    -16.49675131	    -16.01476721	      5.06757357	     42.98967982	     81.25238076
      3.00000000	     -0.42977657	      1.24911344	    -10.61521899	      0.48584738	      1.08271385	     -0.03085001	     11.80286120	     -0.82268202	    -12.63585651	      5.53307496	    -27.69961347	     -8.03897958	      0.00000000	     12.38598691	      2.62834585	     -8.85567217	      8.99163272	    -30.88504669	     -6.90879227	      0.00000000	     -9.64792323	      2.35021829	     -6.06256069	      4.22254123	    -11.72685972	     25.59947234	     27.79944780	     67.02038921	    -16.09123014	    -16.03539876	      5.43674354	     42.88239604	     81.35454332
      3.01666670	      0.11335614	      0.92414559	    -10.46433275	      0.49777843	      1.05220596	     -0.02675988	     12.62789610	     -0.59864145	    -12.36832853	      4.23056153	    -29.70907018	     -6.41272731	      0.00000000	     13.86089950	      2.16236245	     -9.28795499	      9.28168397	    -32.56465776	     -6.76893689	      0.00000000	    -10.73618352	      2.50580932	     -5.99882238	      4.16941792	    -11.97558446	     25.57825031	     27.97248634	     66.84372096	    -15.44551151	    -16.20950422	      5.89720444	     42.82628809	     81.45896452
      3.03333330	      0.66226835	      0.52928771	    -10.17641795	      0.51137353	      1.02566593	     -0.02548176	     13.38868240	     -0.55220313	    -12.27244946	      3.54715480	    -31.62773218	     -5.15963377	      0.00000000	     15.34064223	      1.54597851	     -9.37179871	     10.36580054	    -35.79474728	     -8.83914051	      0.00000000	    -11.75616395	      2.74302278	     -4.80225499	      2.72401743	    -12.86010031	     24.96843650	     30.08177999	     64.80292549	    -13.05126349	    -17.13882787	     11.25654133	     40.96659045	     82.28204877
      3.05000000	      1.00293177	     -0.19204418	    -10.29260390	      0.52032314	      0.98177379	     -0.02642665	     15.09335480	     -0.29385763	    -11.68110971	      4.99250974	    -33.09176173	     -4.94513265	      0.00000000	     17.44035182	      0.41660136	     -9.86140493	     12.63092519	    -38.11117335	    -10.27663569	      0.00000000	    -12.86004480	      3.26348028	     -4.26029094	      2.56307664	    -13.40975136	     25.16569571	     30.42122888	     64.37527759	    -12.20862493	    -16.95277725	     11.98721332	     41.34352040	     82.24287902
      3.06666670	      1.18692671	     -1.27176009	    -10.35231124	      0.53458108	      0.94555054	     -0.02516695	     17.04461775	      0.12801179	    -11.07757290	      8.27115564	    -35.50121538	     -6.38876963	      0.00000000	     19.37932349	     -1.12740903	    -10.30558773	     15.49507725	    -40.21739108	    -12.39522079	      0.00000000	    -13.74553885	      4.34869874	     -4.14880461	      2.54571972	    -14.28052763	     25.63312264	     31.51983397	     64.01045486	    -11.74743953	    -16.54767763	     13.09700233	     41.44744028	     82.21234611
      3.08333330	      1.51974981	     -1.80753135	    -10.55500864	      0.54781045	      0.91687694	     -0.02115242	     19.64561884	      0.05243541	     -9.43606228	     14.74895400	    -32.72114736	     -8.19232458	      0.00000000	     21.45474176	     -2.19632818	     -9.59396707	     21.28986503	    -36.75454389	    -13.96015876	      0.00000000	    -14.83761413	      4.67987153	     -4.09891584	      2.54313679	    -14.72186893	     26.20152545	     32.38287560	     63.69554483	    -10.98299831	    -16.46066960	     14.01221189	     41.75799451	     82.14338202
      3.10000000	      1.93967001	     -1.83007855	    -10.73066492	      0.56043450	      0.87468233	     -0.02265725	     24.35456458	     -0.49635729	     -7.32121111	     27.41155889	    -22.94659163	    -13.21739691	      0.00000000	     25.72721913	     -2.81439876	     -8.66545089	     33.04289822	    -28.63896195	    -18.64407791	      0.00000000	    -16.13638595	      4.52733234	     -4.16701635	      2.92638158	    -15.17050683	     26.90088546	     33.19295416	     63.38413998	     -9.93949566	    -16.21997519	     15.01702533	     41.90590741	     82.03848872
      3.11666670	      1.72210510	     -1.45999324	    -11.30115161	      0.57175053	      0.83282768	     -0.02424633	     31.01576254	     -0.89587308	     -5.43932700	     42.25664809	    -10.69634827	    -19.19989471	      0.00000000	     32.02383170	     -2.67991846	     -7.44030636	     47.51128505	    -18.37931245	    -23.34333735	      0.00000000	    -16.76051494	      4.19987335	     -3.92436802	      2.88319727	    -15.74362260	     28.06322801	     34.22788522	     63.08170641	     -9.51610996	    -15.80476051	     15.69081747	     42.75083861	     81.80612061
      3.13333330	      1.90075128	     -1.53251155	    -11.42933685	      0.57596572	      0.80423790	     -0.01417253	     36.09776041	      0.12451063	     -4.29233036	     54.76364690	      0.87246767	    -23.16403633	      0.00000000	     37.19394364	     -2.87872919	     -6.19349418	     59.96573015	     -8.87143648	    -25.90395214	      0.00000000	    -18.27312450	      4.03593097	     -3.77161306	      3.13237191	    -16.30053973	     29.28325209	     35.61746979	     62.35595968	     -9.42217752	    -15.33229583	     14.88335292	     44.32547451	     81.18726769
      3.15000000	      1.34175075	     -1.49263530	    -11.25891906	      0.58277817	      0.76276307	     -0.01186297	     42.05343443	      1.09047229	     -3.61084780	     66.43344074	     10.34435335	    -26.37111065	      0.00000000	     43.28004228	     -2.77892033	     -4.93632425	     71.49754860	     -1.72864874	    -28.34906852	      0.00000000	    -19.46757228	      3.95608279	     -3.49279520	      3.64917616	    -16.42230055	     29.67885309	     36.04391490	     62.03802203	     -9.10554796	    -14.78634606	     14.37698726	     45.62374578	     80.96883889
      3.16666670	      0.63921614	     -1.45628892	    -10.81061395	      0.59527542	      0.73460510	     -0.00813560	     46.71147683	      2.05610607	     -3.14123144	     75.50450174	     17.02498064	    -27.71598870	      0.00000000	     48.22698418	     -2.18203772	     -3.39169618	     80.35809577	      3.72958569	    -29.62876054	      0.00000000	    -20.65037170	      3.84079516	     -3.57364795	      4.63987818	    -16.13395156	     29.81738996	     35.70297344	     61.81464104	     -8.20176594	    -14.11386000	     13.97089098	     45.60698810	     80.82429658
